<svg xmlns="http://www.w3.org/2000/svg" xmlns:xlink="http://www.w3.org/1999/xlink" width="24" height="24" preserveAspectRatio="xMidYMid meet" viewBox="0 0 24 24" style="-ms-transform: rotate(360deg); -webkit-transform: rotate(360deg); transform: rotate(360deg);"><path d="M12 17.065a5 5 0 1 1 0-10a5 5 0 0 1 0 10zm0-15a1 1 0 0 1 1 1v2a1 1 0 0 1-2 0v-2a1 1 0 0 1 1-1zm0 16a1 1 0 0 1 1 1v2a1 1 0 0 1-2 0v-2a1 1 0 0 1 1-1zm-9-7h2a1 1 0 1 1 0 2H3a1 1 0 0 1 0-2zm16 0h2a1 1 0 0 1 0 2h-2a1 1 0 0 1 0-2zm.071-6.071a1 1 0 0 1 0 1.414l-1.414 1.414a1 1 0 1 1-1.414-1.414l1.414-1.414a1 1 0 0 1 1.414 0zM7.757 16.308a1 1 0 0 1 0 1.414l-1.414 1.414a1 1 0 1 1-1.414-1.414l1.414-1.414a1 1 0 0 1 1.414 0zM6.343 4.994l1.414 1.414a1 1 0 0 1-1.414 1.414L4.93 6.408a1 1 0 0 1 1.414-1.414zm11.314 11.314l1.414 1.414a1 1 0 0 1-1.414 1.414l-1.414-1.414a1 1 0 1 1 1.414-1.414z" fill="#e6e6e6"/><rect x="0" y="0" width="24" height="24" fill="rgba(0, 0, 0, 0)" /></svg> 